<?xml version="1.0" encoding="UTF-8"?>
<mxfile host="app.diagrams.net" modified="2025-09-20T00:20:13.152877" version="22.1.11">
  <diagram name="Network Architecture" id="diagram_0">
    <mxGraphModel dx="2500" dy="1600" grid="1" gridSize="10" guides="1" tooltips="1" connect="1" arrows="1" fold="1" page="1" pageScale="1" pageWidth="1400" pageHeight="1000">
      <root>
        <mxCell id="0"/>
        <mxCell id="1" parent="0"/>
        <mxCell id="title_1001" value="BMC NETWORK ARCHITECTURE - AWS SENIOR LEVEL" style="text;html=1;strokeColor=none;fillColor=none;align=center;verticalAlign=middle;whiteSpace=wrap;rounded=0;fontSize=18;fontStyle=1;fontColor=#1976D2;" vertex="1" parent="1">
          <mxGeometry x="400" y="20" width="600" height="30" as="geometry"/>
        </mxCell>
<mxCell id="aws_cloud_1002" value="AWS Cloud - us-east-1" style="fillColor=#E3F2FD;strokeColor=#1976D2;dashed=1;verticalAlign=top;fontStyle=1;fontSize=14;fontColor=#1976D2;" vertex="1" parent="1">
          <mxGeometry x="50" y="80" width="1200" height="800" as="geometry"/>
        </mxCell>
<mxCell id="cloudfront_1003" value="CloudFront CDN\n200+ edge locations\nSSL/TLS 1.3" style="shape=mxgraph.aws4.cloudfront;labelPosition=bottom;verticalLabelPosition=top;align=center;verticalAlign=bottom;fillColor=#E8F5E8;strokeColor=#4CAF50;fontColor=#2E7D32;" vertex="1" parent="1">
          <mxGeometry x="150" y="150" width="78" height="78" as="geometry"/>
        </mxCell>
<mxCell id="waf_1004" value="AWS WAF\nDDoS protection\nRate limiting: 2K/s" style="shape=mxgraph.aws4.waf;labelPosition=bottom;verticalLabelPosition=top;align=center;verticalAlign=bottom;fillColor=#E8F5E8;strokeColor=#4CAF50;fontColor=#2E7D32;" vertex="1" parent="1">
          <mxGeometry x="350" y="150" width="78" height="78" as="geometry"/>
        </mxCell>
<mxCell id="api_gw_1005" value="API Gateway\n10K req/s throttle\nCaching: 300s TTL" style="shape=mxgraph.aws4.api_gateway;labelPosition=bottom;verticalLabelPosition=top;align=center;verticalAlign=bottom;fillColor=#E8F5E8;strokeColor=#4CAF50;fontColor=#2E7D32;" vertex="1" parent="1">
          <mxGeometry x="550" y="150" width="78" height="78" as="geometry"/>
        </mxCell>
<mxCell id="vpc_1006" value="VPC 10.0.0.0/16 - Multi-AZ" style="fillColor=#F5F5F5;strokeColor=#666666;dashed=1;verticalAlign=top;fontStyle=1;fontSize=14;fontColor=#666666;" vertex="1" parent="1">
          <mxGeometry x="100" y="300" width="1000" height="500" as="geometry"/>
        </mxCell>
<mxCell id="az1a_1007" value="AZ us-east-1a" style="fillColor=#E8F5E8;strokeColor=#4CAF50;dashed=1;verticalAlign=top;fontStyle=1;fontSize=14;fontColor=#4CAF50;" vertex="1" parent="1">
          <mxGeometry x="150" y="350" width="400" height="200" as="geometry"/>
        </mxCell>
<mxCell id="invoice_1008" value="Invoice Service\n2vCPU/4GB\nBlue/Green deploy" style="shape=mxgraph.aws4.fargate;labelPosition=bottom;verticalLabelPosition=top;align=center;verticalAlign=bottom;fillColor=#E8F5E8;strokeColor=#4CAF50;fontColor=#2E7D32;" vertex="1" parent="1">
          <mxGeometry x="200" y="400" width="78" height="78" as="geometry"/>
        </mxCell>
<mxCell id="product_1009" value="Product Service\n4vCPU/8GB\n60M products" style="shape=mxgraph.aws4.fargate;labelPosition=bottom;verticalLabelPosition=top;align=center;verticalAlign=bottom;fillColor=#E8F5E8;strokeColor=#4CAF50;fontColor=#2E7D32;" vertex="1" parent="1">
          <mxGeometry x="350" y="400" width="78" height="78" as="geometry"/>
        </mxCell>
<mxCell id="az1b_1010" value="AZ us-east-1b" style="fillColor=#FFF3E0;strokeColor=#FF9800;dashed=1;verticalAlign=top;fontStyle=1;fontSize=14;fontColor=#FF9800;" vertex="1" parent="1">
          <mxGeometry x="600" y="350" width="400" height="200" as="geometry"/>
        </mxCell>
<mxCell id="ocr_1011" value="OCR Service\n4vCPU/8GB\nTextract integration" style="shape=mxgraph.aws4.fargate;labelPosition=bottom;verticalLabelPosition=top;align=center;verticalAlign=bottom;fillColor=#E8F5E8;strokeColor=#4CAF50;fontColor=#2E7D32;" vertex="1" parent="1">
          <mxGeometry x="650" y="400" width="78" height="78" as="geometry"/>
        </mxCell>
<mxCell id="commission_1012" value="Commission Service\n2vCPU/4GB\nDIAN compliance" style="shape=mxgraph.aws4.fargate;labelPosition=bottom;verticalLabelPosition=top;align=center;verticalAlign=bottom;fillColor=#E8F5E8;strokeColor=#4CAF50;fontColor=#2E7D32;" vertex="1" parent="1">
          <mxGeometry x="800" y="400" width="78" height="78" as="geometry"/>
        </mxCell>
<mxCell id="rds_primary_1013" value="RDS Primary\nPostgreSQL 14\ndb.r6g.2xlarge\n35-day backup" style="shape=mxgraph.aws4.rds;labelPosition=bottom;verticalLabelPosition=top;align=center;verticalAlign=bottom;fillColor=#E8F5E8;strokeColor=#4CAF50;fontColor=#2E7D32;" vertex="1" parent="1">
          <mxGeometry x="300" y="600" width="78" height="78" as="geometry"/>
        </mxCell>
<mxCell id="rds_replica_1014" value="Read Replica\nCross-AZ\nPromotion ready" style="shape=mxgraph.aws4.rds;labelPosition=bottom;verticalLabelPosition=top;align=center;verticalAlign=bottom;fillColor=#E8F5E8;strokeColor=#4CAF50;fontColor=#2E7D32;" vertex="1" parent="1">
          <mxGeometry x="500" y="600" width="78" height="78" as="geometry"/>
        </mxCell>
<mxCell id="s3_docs_1015" value="S3 Documents\nIntelligent Tiering\n90d â†’ Glacier" style="shape=mxgraph.aws4.s3;labelPosition=bottom;verticalLabelPosition=top;align=center;verticalAlign=bottom;fillColor=#E8F5E8;strokeColor=#4CAF50;fontColor=#2E7D32;" vertex="1" parent="1">
          <mxGeometry x="750" y="150" width="78" height="78" as="geometry"/>
        </mxCell>
<mxCell id="redis_1016" value="ElastiCache Redis\n6 nodes (3 shards)\nMulti-AZ" style="shape=mxgraph.aws4.elasticache;labelPosition=bottom;verticalLabelPosition=top;align=center;verticalAlign=bottom;fillColor=#E8F5E8;strokeColor=#4CAF50;fontColor=#2E7D32;" vertex="1" parent="1">
          <mxGeometry x="700" y="600" width="78" height="78" as="geometry"/>
        </mxCell>
<mxCell id="conn_1017" style="edgeStyle=orthogonalEdgeStyle;rounded=0;orthogonalLoop=1;jettySize=auto;html=1;strokeColor=#1976D2;strokeWidth=2;fontColor=#1976D2;" edge="1" parent="1" source="cloudfront" target="waf">
          <mxGeometry relative="1" as="geometry">
            <mxPoint x="0" y="-10" as="offset"/>
            <Array as="points"/>
          </mxGeometry>
          <mxCell value="HTTPS Traffic" style="edgeLabel;html=1;align=center;verticalAlign=middle;resizable=0;points=[];fontSize=10;fontColor=#1976D2;" vertex="1" connectable="0" parent="conn_1017">
            <mxGeometry x="-0.1" y="1" relative="1" as="geometry">
              <mxPoint as="offset"/>
            </mxGeometry>
          </mxCell>
        </mxCell>
<mxCell id="conn_1018" style="edgeStyle=orthogonalEdgeStyle;rounded=0;orthogonalLoop=1;jettySize=auto;html=1;strokeColor=#1976D2;strokeWidth=2;fontColor=#1976D2;" edge="1" parent="1" source="waf" target="api_gw">
          <mxGeometry relative="1" as="geometry">
            <mxPoint x="0" y="-10" as="offset"/>
            <Array as="points"/>
          </mxGeometry>
          <mxCell value="Filtered Requests" style="edgeLabel;html=1;align=center;verticalAlign=middle;resizable=0;points=[];fontSize=10;fontColor=#1976D2;" vertex="1" connectable="0" parent="conn_1018">
            <mxGeometry x="-0.1" y="1" relative="1" as="geometry">
              <mxPoint as="offset"/>
            </mxGeometry>
          </mxCell>
        </mxCell>
<mxCell id="conn_1019" style="edgeStyle=orthogonalEdgeStyle;rounded=0;orthogonalLoop=1;jettySize=auto;html=1;strokeColor=#4CAF50;strokeWidth=2;fontColor=#4CAF50;" edge="1" parent="1" source="api_gw" target="invoice">
          <mxGeometry relative="1" as="geometry">
            <mxPoint x="0" y="-10" as="offset"/>
            <Array as="points"/>
          </mxGeometry>
          <mxCell value="Route /invoices" style="edgeLabel;html=1;align=center;verticalAlign=middle;resizable=0;points=[];fontSize=10;fontColor=#4CAF50;" vertex="1" connectable="0" parent="conn_1019">
            <mxGeometry x="-0.1" y="1" relative="1" as="geometry">
              <mxPoint as="offset"/>
            </mxGeometry>
          </mxCell>
        </mxCell>
<mxCell id="conn_1020" style="edgeStyle=orthogonalEdgeStyle;rounded=0;orthogonalLoop=1;jettySize=auto;html=1;strokeColor=#4CAF50;strokeWidth=2;fontColor=#4CAF50;" edge="1" parent="1" source="api_gw" target="product">
          <mxGeometry relative="1" as="geometry">
            <mxPoint x="0" y="-10" as="offset"/>
            <Array as="points"/>
          </mxGeometry>
          <mxCell value="Route /products" style="edgeLabel;html=1;align=center;verticalAlign=middle;resizable=0;points=[];fontSize=10;fontColor=#4CAF50;" vertex="1" connectable="0" parent="conn_1020">
            <mxGeometry x="-0.1" y="1" relative="1" as="geometry">
              <mxPoint as="offset"/>
            </mxGeometry>
          </mxCell>
        </mxCell>
<mxCell id="conn_1021" style="edgeStyle=orthogonalEdgeStyle;rounded=0;orthogonalLoop=1;jettySize=auto;html=1;strokeColor=#4CAF50;strokeWidth=2;fontColor=#4CAF50;" edge="1" parent="1" source="api_gw" target="ocr">
          <mxGeometry relative="1" as="geometry">
            <mxPoint x="0" y="-10" as="offset"/>
            <Array as="points"/>
          </mxGeometry>
          <mxCell value="Route /ocr" style="edgeLabel;html=1;align=center;verticalAlign=middle;resizable=0;points=[];fontSize=10;fontColor=#4CAF50;" vertex="1" connectable="0" parent="conn_1021">
            <mxGeometry x="-0.1" y="1" relative="1" as="geometry">
              <mxPoint as="offset"/>
            </mxGeometry>
          </mxCell>
        </mxCell>
<mxCell id="conn_1022" style="edgeStyle=orthogonalEdgeStyle;rounded=0;orthogonalLoop=1;jettySize=auto;html=1;strokeColor=#4CAF50;strokeWidth=2;fontColor=#4CAF50;" edge="1" parent="1" source="api_gw" target="commission">
          <mxGeometry relative="1" as="geometry">
            <mxPoint x="0" y="-10" as="offset"/>
            <Array as="points"/>
          </mxGeometry>
          <mxCell value="Route /commissions" style="edgeLabel;html=1;align=center;verticalAlign=middle;resizable=0;points=[];fontSize=10;fontColor=#4CAF50;" vertex="1" connectable="0" parent="conn_1022">
            <mxGeometry x="-0.1" y="1" relative="1" as="geometry">
              <mxPoint as="offset"/>
            </mxGeometry>
          </mxCell>
        </mxCell>
<mxCell id="conn_1023" style="edgeStyle=orthogonalEdgeStyle;rounded=0;orthogonalLoop=1;jettySize=auto;html=1;strokeColor=#2196F3;strokeWidth=2;fontColor=#2196F3;" edge="1" parent="1" source="invoice" target="rds_primary">
          <mxGeometry relative="1" as="geometry">
            <mxPoint x="0" y="-10" as="offset"/>
            <Array as="points"/>
          </mxGeometry>
          <mxCell value="Write Operations" style="edgeLabel;html=1;align=center;verticalAlign=middle;resizable=0;points=[];fontSize=10;fontColor=#2196F3;" vertex="1" connectable="0" parent="conn_1023">
            <mxGeometry x="-0.1" y="1" relative="1" as="geometry">
              <mxPoint as="offset"/>
            </mxGeometry>
          </mxCell>
        </mxCell>
<mxCell id="conn_1024" style="edgeStyle=orthogonalEdgeStyle;rounded=0;orthogonalLoop=1;jettySize=auto;html=1;strokeColor=#2196F3;strokeWidth=2;fontColor=#2196F3;" edge="1" parent="1" source="product" target="rds_primary">
          <mxGeometry relative="1" as="geometry">
            <mxPoint x="0" y="-10" as="offset"/>
            <Array as="points"/>
          </mxGeometry>
          <mxCell value="Write Operations" style="edgeLabel;html=1;align=center;verticalAlign=middle;resizable=0;points=[];fontSize=10;fontColor=#2196F3;" vertex="1" connectable="0" parent="conn_1024">
            <mxGeometry x="-0.1" y="1" relative="1" as="geometry">
              <mxPoint as="offset"/>
            </mxGeometry>
          </mxCell>
        </mxCell>
<mxCell id="conn_1025" style="edgeStyle=orthogonalEdgeStyle;rounded=0;orthogonalLoop=1;jettySize=auto;html=1;strokeColor=#FF9800;strokeWidth=2;fontColor=#FF9800;" edge="1" parent="1" source="product" target="redis">
          <mxGeometry relative="1" as="geometry">
            <mxPoint x="0" y="-10" as="offset"/>
            <Array as="points"/>
          </mxGeometry>
          <mxCell value="Cache Lookup" style="edgeLabel;html=1;align=center;verticalAlign=middle;resizable=0;points=[];fontSize=10;fontColor=#FF9800;" vertex="1" connectable="0" parent="conn_1025">
            <mxGeometry x="-0.1" y="1" relative="1" as="geometry">
              <mxPoint as="offset"/>
            </mxGeometry>
          </mxCell>
        </mxCell>
<mxCell id="conn_1026" style="edgeStyle=orthogonalEdgeStyle;rounded=0;orthogonalLoop=1;jettySize=auto;html=1;strokeColor=#9C27B0;strokeWidth=2;fontColor=#9C27B0;" edge="1" parent="1" source="rds_primary" target="rds_replica">
          <mxGeometry relative="1" as="geometry">
            <mxPoint x="0" y="-10" as="offset"/>
            <Array as="points"/>
          </mxGeometry>
          <mxCell value="Replication" style="edgeLabel;html=1;align=center;verticalAlign=middle;resizable=0;points=[];fontSize=10;fontColor=#9C27B0;" vertex="1" connectable="0" parent="conn_1026">
            <mxGeometry x="-0.1" y="1" relative="1" as="geometry">
              <mxPoint as="offset"/>
            </mxGeometry>
          </mxCell>
        </mxCell>
      </root>
    </mxGraphModel>
  </diagram>
  <diagram name="Microservices Detailed" id="diagram_1">
    <mxGraphModel dx="2500" dy="1600" grid="1" gridSize="10" guides="1" tooltips="1" connect="1" arrows="1" fold="1" page="1" pageScale="1" pageWidth="1400" pageHeight="1000">
      <root>
        <mxCell id="0"/>
        <mxCell id="1" parent="0"/>
        <mxCell id="title_1027" value="BMC MICROSERVICES - DETAILED ARCHITECTURE" style="text;html=1;strokeColor=none;fillColor=none;align=center;verticalAlign=middle;whiteSpace=wrap;rounded=0;fontSize=18;fontStyle=1;fontColor=#1976D2;" vertex="1" parent="1">
          <mxGeometry x="400" y="20" width="600" height="30" as="geometry"/>
        </mxCell>
<mxCell id="api_layer_1028" value="API Management Layer" style="fillColor=#E3F2FD;strokeColor=#1976D2;dashed=1;verticalAlign=top;fontStyle=1;fontSize=14;fontColor=#1976D2;" vertex="1" parent="1">
          <mxGeometry x="50" y="80" width="1200" height="150" as="geometry"/>
        </mxCell>
<mxCell id="api_gateway_1029" value="API Gateway\nThrottling: 10K req/s\nCustom authorizers" style="shape=mxgraph.aws4.api_gateway;labelPosition=bottom;verticalLabelPosition=top;align=center;verticalAlign=bottom;fillColor=#E8F5E8;strokeColor=#4CAF50;fontColor=#2E7D32;" vertex="1" parent="1">
          <mxGeometry x="150" y="120" width="78" height="78" as="geometry"/>
        </mxCell>
<mxCell id="cognito_1030" value="Cognito User Pool\nJWT validation\nMFA: TOTP + SMS" style="shape=mxgraph.aws4.cognito;labelPosition=bottom;verticalLabelPosition=top;align=center;verticalAlign=bottom;fillColor=#E8F5E8;strokeColor=#4CAF50;fontColor=#2E7D32;" vertex="1" parent="1">
          <mxGeometry x="400" y="120" width="78" height="78" as="geometry"/>
        </mxCell>
<mxCell id="alb_1031" value="Application LB\nSticky sessions\nHealth checks" style="shape=mxgraph.aws4.application_load_balancer;labelPosition=bottom;verticalLabelPosition=top;align=center;verticalAlign=bottom;fillColor=#E8F5E8;strokeColor=#4CAF50;fontColor=#2E7D32;" vertex="1" parent="1">
          <mxGeometry x="650" y="120" width="78" height="78" as="geometry"/>
        </mxCell>
<mxCell id="microservices_1032" value="ECS Fargate Cluster - Auto Scaling" style="fillColor=#E8F5E8;strokeColor=#4CAF50;dashed=1;verticalAlign=top;fontStyle=1;fontSize=14;fontColor=#4CAF50;" vertex="1" parent="1">
          <mxGeometry x="50" y="280" width="1200" height="200" as="geometry"/>
        </mxCell>
<mxCell id="invoice_pod_1033" value="Invoice Service Pod" style="fillColor=#FFF3E0;strokeColor=#FF9800;dashed=1;verticalAlign=top;fontStyle=1;fontSize=14;fontColor=#FF9800;" vertex="1" parent="1">
          <mxGeometry x="100" y="320" width="200" height="120" as="geometry"/>
        </mxCell>
<mxCell id="invoice_task1_1034" value="Task 1\n2vCPU/4GB\nPort: 8000" style="shape=mxgraph.aws4.fargate;labelPosition=bottom;verticalLabelPosition=top;align=center;verticalAlign=bottom;fillColor=#E8F5E8;strokeColor=#4CAF50;fontColor=#2E7D32;" vertex="1" parent="1">
          <mxGeometry x="120" y="350" width="78" height="78" as="geometry"/>
        </mxCell>
<mxCell id="invoice_task2_1035" value="Task 2\n2vCPU/4GB\nPort: 8000" style="shape=mxgraph.aws4.fargate;labelPosition=bottom;verticalLabelPosition=top;align=center;verticalAlign=bottom;fillColor=#E8F5E8;strokeColor=#4CAF50;fontColor=#2E7D32;" vertex="1" parent="1">
          <mxGeometry x="200" y="350" width="78" height="78" as="geometry"/>
        </mxCell>
<mxCell id="product_pod_1036" value="Product Service Pod - 60M Records" style="fillColor=#E3F2FD;strokeColor=#2196F3;dashed=1;verticalAlign=top;fontStyle=1;fontSize=14;fontColor=#2196F3;" vertex="1" parent="1">
          <mxGeometry x="350" y="320" width="200" height="120" as="geometry"/>
        </mxCell>
<mxCell id="product_task1_1037" value="Task 1\n4vCPU/8GB\n<500ms lookup" style="shape=mxgraph.aws4.fargate;labelPosition=bottom;verticalLabelPosition=top;align=center;verticalAlign=bottom;fillColor=#E8F5E8;strokeColor=#4CAF50;fontColor=#2E7D32;" vertex="1" parent="1">
          <mxGeometry x="370" y="350" width="78" height="78" as="geometry"/>
        </mxCell>
<mxCell id="product_task2_1038" value="Task 2\n4vCPU/8GB\n<500ms lookup" style="shape=mxgraph.aws4.fargate;labelPosition=bottom;verticalLabelPosition=top;align=center;verticalAlign=bottom;fillColor=#E8F5E8;strokeColor=#4CAF50;fontColor=#2E7D32;" vertex="1" parent="1">
          <mxGeometry x="450" y="350" width="78" height="78" as="geometry"/>
        </mxCell>
<mxCell id="ocr_pod_1039" value="OCR Service Pod" style="fillColor=#FCE4EC;strokeColor=#E91E63;dashed=1;verticalAlign=top;fontStyle=1;fontSize=14;fontColor=#E91E63;" vertex="1" parent="1">
          <mxGeometry x="600" y="320" width="200" height="120" as="geometry"/>
        </mxCell>
<mxCell id="ocr_task1_1040" value="Task 1\n4vCPU/8GB\nTextract" style="shape=mxgraph.aws4.fargate;labelPosition=bottom;verticalLabelPosition=top;align=center;verticalAlign=bottom;fillColor=#E8F5E8;strokeColor=#4CAF50;fontColor=#2E7D32;" vertex="1" parent="1">
          <mxGeometry x="620" y="350" width="78" height="78" as="geometry"/>
        </mxCell>
<mxCell id="ocr_task2_1041" value="Task 2\n4vCPU/8GB\nTextract" style="shape=mxgraph.aws4.fargate;labelPosition=bottom;verticalLabelPosition=top;align=center;verticalAlign=bottom;fillColor=#E8F5E8;strokeColor=#4CAF50;fontColor=#2E7D32;" vertex="1" parent="1">
          <mxGeometry x="700" y="350" width="78" height="78" as="geometry"/>
        </mxCell>
<mxCell id="commission_pod_1042" value="Commission Service Pod" style="fillColor=#F3E5F5;strokeColor=#9C27B0;dashed=1;verticalAlign=top;fontStyle=1;fontSize=14;fontColor=#9C27B0;" vertex="1" parent="1">
          <mxGeometry x="850" y="320" width="200" height="120" as="geometry"/>
        </mxCell>
<mxCell id="commission_task1_1043" value="Task 1\n2vCPU/4GB\nDIAN API" style="shape=mxgraph.aws4.fargate;labelPosition=bottom;verticalLabelPosition=top;align=center;verticalAlign=bottom;fillColor=#E8F5E8;strokeColor=#4CAF50;fontColor=#2E7D32;" vertex="1" parent="1">
          <mxGeometry x="870" y="350" width="78" height="78" as="geometry"/>
        </mxCell>
<mxCell id="commission_task2_1044" value="Task 2\n2vCPU/4GB\nDIAN API" style="shape=mxgraph.aws4.fargate;labelPosition=bottom;verticalLabelPosition=top;align=center;verticalAlign=bottom;fillColor=#E8F5E8;strokeColor=#4CAF50;fontColor=#2E7D32;" vertex="1" parent="1">
          <mxGeometry x="950" y="350" width="78" height="78" as="geometry"/>
        </mxCell>
<mxCell id="data_services_1045" value="Data Services - Multi-AZ" style="fillColor=#F5F5F5;strokeColor=#666666;dashed=1;verticalAlign=top;fontStyle=1;fontSize=14;fontColor=#666666;" vertex="1" parent="1">
          <mxGeometry x="50" y="520" width="1200" height="200" as="geometry"/>
        </mxCell>
<mxCell id="rds_primary_1046" value="RDS PostgreSQL\ndb.r6g.2xlarge\nMulti-AZ\n35-day backup\nPerformance Insights" style="shape=mxgraph.aws4.rds;labelPosition=bottom;verticalLabelPosition=top;align=center;verticalAlign=bottom;fillColor=#E8F5E8;strokeColor=#4CAF50;fontColor=#2E7D32;" vertex="1" parent="1">
          <mxGeometry x="150" y="580" width="78" height="78" as="geometry"/>
        </mxCell>
<mxCell id="redis_cluster_1047" value="ElastiCache Redis\n6 nodes (3 shards)\nCluster mode\n99.9% availability" style="shape=mxgraph.aws4.elasticache;labelPosition=bottom;verticalLabelPosition=top;align=center;verticalAlign=bottom;fillColor=#E8F5E8;strokeColor=#4CAF50;fontColor=#2E7D32;" vertex="1" parent="1">
          <mxGeometry x="400" y="580" width="78" height="78" as="geometry"/>
        </mxCell>
<mxCell id="s3_docs_1048" value="S3 Documents\nIntelligent Tiering\n90d â†’ Glacier\nVersioning enabled" style="shape=mxgraph.aws4.s3;labelPosition=bottom;verticalLabelPosition=top;align=center;verticalAlign=bottom;fillColor=#E8F5E8;strokeColor=#4CAF50;fontColor=#2E7D32;" vertex="1" parent="1">
          <mxGeometry x="650" y="580" width="78" height="78" as="geometry"/>
        </mxCell>
<mxCell id="textract_1049" value="Amazon Textract\n>95% accuracy\nForms + Tables\nHandwriting" style="shape=mxgraph.aws4.textract;labelPosition=bottom;verticalLabelPosition=top;align=center;verticalAlign=bottom;fillColor=#E8F5E8;strokeColor=#4CAF50;fontColor=#2E7D32;" vertex="1" parent="1">
          <mxGeometry x="900" y="580" width="78" height="78" as="geometry"/>
        </mxCell>
<mxCell id="conn_1050" style="edgeStyle=orthogonalEdgeStyle;rounded=0;orthogonalLoop=1;jettySize=auto;html=1;strokeColor=#1976D2;strokeWidth=2;fontColor=#1976D2;" edge="1" parent="1" source="api_gateway" target="cognito">
          <mxGeometry relative="1" as="geometry">
            <mxPoint x="0" y="-10" as="offset"/>
            <Array as="points"/>
          </mxGeometry>
          <mxCell value="Auth" style="edgeLabel;html=1;align=center;verticalAlign=middle;resizable=0;points=[];fontSize=10;fontColor=#1976D2;" vertex="1" connectable="0" parent="conn_1050">
            <mxGeometry x="-0.1" y="1" relative="1" as="geometry">
              <mxPoint as="offset"/>
            </mxGeometry>
          </mxCell>
        </mxCell>
<mxCell id="conn_1051" style="edgeStyle=orthogonalEdgeStyle;rounded=0;orthogonalLoop=1;jettySize=auto;html=1;strokeColor=#1976D2;strokeWidth=2;fontColor=#1976D2;" edge="1" parent="1" source="cognito" target="alb">
          <mxGeometry relative="1" as="geometry">
            <mxPoint x="0" y="-10" as="offset"/>
            <Array as="points"/>
          </mxGeometry>
          <mxCell value="Authorized" style="edgeLabel;html=1;align=center;verticalAlign=middle;resizable=0;points=[];fontSize=10;fontColor=#1976D2;" vertex="1" connectable="0" parent="conn_1051">
            <mxGeometry x="-0.1" y="1" relative="1" as="geometry">
              <mxPoint as="offset"/>
            </mxGeometry>
          </mxCell>
        </mxCell>
<mxCell id="conn_1052" style="edgeStyle=orthogonalEdgeStyle;rounded=0;orthogonalLoop=1;jettySize=auto;html=1;strokeColor=#4CAF50;strokeWidth=2;fontColor=#4CAF50;" edge="1" parent="1" source="alb" target="invoice_task1">
          <mxGeometry relative="1" as="geometry">
            <mxPoint x="0" y="-10" as="offset"/>
            <Array as="points"/>
          </mxGeometry>
          <mxCell value="Route" style="edgeLabel;html=1;align=center;verticalAlign=middle;resizable=0;points=[];fontSize=10;fontColor=#4CAF50;" vertex="1" connectable="0" parent="conn_1052">
            <mxGeometry x="-0.1" y="1" relative="1" as="geometry">
              <mxPoint as="offset"/>
            </mxGeometry>
          </mxCell>
        </mxCell>
<mxCell id="conn_1053" style="edgeStyle=orthogonalEdgeStyle;rounded=0;orthogonalLoop=1;jettySize=auto;html=1;strokeColor=#4CAF50;strokeWidth=2;fontColor=#4CAF50;" edge="1" parent="1" source="alb" target="product_task1">
          <mxGeometry relative="1" as="geometry">
            <mxPoint x="0" y="-10" as="offset"/>
            <Array as="points"/>
          </mxGeometry>
          <mxCell value="Route" style="edgeLabel;html=1;align=center;verticalAlign=middle;resizable=0;points=[];fontSize=10;fontColor=#4CAF50;" vertex="1" connectable="0" parent="conn_1053">
            <mxGeometry x="-0.1" y="1" relative="1" as="geometry">
              <mxPoint as="offset"/>
            </mxGeometry>
          </mxCell>
        </mxCell>
<mxCell id="conn_1054" style="edgeStyle=orthogonalEdgeStyle;rounded=0;orthogonalLoop=1;jettySize=auto;html=1;strokeColor=#4CAF50;strokeWidth=2;fontColor=#4CAF50;" edge="1" parent="1" source="alb" target="ocr_task1">
          <mxGeometry relative="1" as="geometry">
            <mxPoint x="0" y="-10" as="offset"/>
            <Array as="points"/>
          </mxGeometry>
          <mxCell value="Route" style="edgeLabel;html=1;align=center;verticalAlign=middle;resizable=0;points=[];fontSize=10;fontColor=#4CAF50;" vertex="1" connectable="0" parent="conn_1054">
            <mxGeometry x="-0.1" y="1" relative="1" as="geometry">
              <mxPoint as="offset"/>
            </mxGeometry>
          </mxCell>
        </mxCell>
<mxCell id="conn_1055" style="edgeStyle=orthogonalEdgeStyle;rounded=0;orthogonalLoop=1;jettySize=auto;html=1;strokeColor=#4CAF50;strokeWidth=2;fontColor=#4CAF50;" edge="1" parent="1" source="alb" target="commission_task1">
          <mxGeometry relative="1" as="geometry">
            <mxPoint x="0" y="-10" as="offset"/>
            <Array as="points"/>
          </mxGeometry>
          <mxCell value="Route" style="edgeLabel;html=1;align=center;verticalAlign=middle;resizable=0;points=[];fontSize=10;fontColor=#4CAF50;" vertex="1" connectable="0" parent="conn_1055">
            <mxGeometry x="-0.1" y="1" relative="1" as="geometry">
              <mxPoint as="offset"/>
            </mxGeometry>
          </mxCell>
        </mxCell>
<mxCell id="conn_1056" style="edgeStyle=orthogonalEdgeStyle;rounded=0;orthogonalLoop=1;jettySize=auto;html=1;strokeColor=#2196F3;strokeWidth=2;fontColor=#2196F3;" edge="1" parent="1" source="invoice_task1" target="rds_primary">
          <mxGeometry relative="1" as="geometry">
            <mxPoint x="0" y="-10" as="offset"/>
            <Array as="points"/>
          </mxGeometry>
          <mxCell value="Write" style="edgeLabel;html=1;align=center;verticalAlign=middle;resizable=0;points=[];fontSize=10;fontColor=#2196F3;" vertex="1" connectable="0" parent="conn_1056">
            <mxGeometry x="-0.1" y="1" relative="1" as="geometry">
              <mxPoint as="offset"/>
            </mxGeometry>
          </mxCell>
        </mxCell>
<mxCell id="conn_1057" style="edgeStyle=orthogonalEdgeStyle;rounded=0;orthogonalLoop=1;jettySize=auto;html=1;strokeColor=#FF9800;strokeWidth=2;fontColor=#FF9800;" edge="1" parent="1" source="product_task1" target="redis_cluster">
          <mxGeometry relative="1" as="geometry">
            <mxPoint x="0" y="-10" as="offset"/>
            <Array as="points"/>
          </mxGeometry>
          <mxCell value="Cache" style="edgeLabel;html=1;align=center;verticalAlign=middle;resizable=0;points=[];fontSize=10;fontColor=#FF9800;" vertex="1" connectable="0" parent="conn_1057">
            <mxGeometry x="-0.1" y="1" relative="1" as="geometry">
              <mxPoint as="offset"/>
            </mxGeometry>
          </mxCell>
        </mxCell>
<mxCell id="conn_1058" style="edgeStyle=orthogonalEdgeStyle;rounded=0;orthogonalLoop=1;jettySize=auto;html=1;strokeColor=#2196F3;strokeWidth=2;fontColor=#2196F3;" edge="1" parent="1" source="product_task1" target="rds_primary">
          <mxGeometry relative="1" as="geometry">
            <mxPoint x="0" y="-10" as="offset"/>
            <Array as="points"/>
          </mxGeometry>
          <mxCell value="60M lookup" style="edgeLabel;html=1;align=center;verticalAlign=middle;resizable=0;points=[];fontSize=10;fontColor=#2196F3;" vertex="1" connectable="0" parent="conn_1058">
            <mxGeometry x="-0.1" y="1" relative="1" as="geometry">
              <mxPoint as="offset"/>
            </mxGeometry>
          </mxCell>
        </mxCell>
<mxCell id="conn_1059" style="edgeStyle=orthogonalEdgeStyle;rounded=0;orthogonalLoop=1;jettySize=auto;html=1;strokeColor=#E91E63;strokeWidth=2;fontColor=#E91E63;" edge="1" parent="1" source="ocr_task1" target="textract">
          <mxGeometry relative="1" as="geometry">
            <mxPoint x="0" y="-10" as="offset"/>
            <Array as="points"/>
          </mxGeometry>
          <mxCell value="OCR >95%" style="edgeLabel;html=1;align=center;verticalAlign=middle;resizable=0;points=[];fontSize=10;fontColor=#E91E63;" vertex="1" connectable="0" parent="conn_1059">
            <mxGeometry x="-0.1" y="1" relative="1" as="geometry">
              <mxPoint as="offset"/>
            </mxGeometry>
          </mxCell>
        </mxCell>
<mxCell id="conn_1060" style="edgeStyle=orthogonalEdgeStyle;rounded=0;orthogonalLoop=1;jettySize=auto;html=1;strokeColor=#795548;strokeWidth=2;fontColor=#795548;" edge="1" parent="1" source="ocr_task1" target="s3_docs">
          <mxGeometry relative="1" as="geometry">
            <mxPoint x="0" y="-10" as="offset"/>
            <Array as="points"/>
          </mxGeometry>
          <mxCell value="Documents" style="edgeLabel;html=1;align=center;verticalAlign=middle;resizable=0;points=[];fontSize=10;fontColor=#795548;" vertex="1" connectable="0" parent="conn_1060">
            <mxGeometry x="-0.1" y="1" relative="1" as="geometry">
              <mxPoint as="offset"/>
            </mxGeometry>
          </mxCell>
        </mxCell>
<mxCell id="conn_1061" style="edgeStyle=orthogonalEdgeStyle;rounded=0;orthogonalLoop=1;jettySize=auto;html=1;strokeColor=#9C27B0;strokeWidth=2;fontColor=#9C27B0;" edge="1" parent="1" source="commission_task1" target="rds_primary">
          <mxGeometry relative="1" as="geometry">
            <mxPoint x="0" y="-10" as="offset"/>
            <Array as="points"/>
          </mxGeometry>
          <mxCell value="Compliance" style="edgeLabel;html=1;align=center;verticalAlign=middle;resizable=0;points=[];fontSize=10;fontColor=#9C27B0;" vertex="1" connectable="0" parent="conn_1061">
            <mxGeometry x="-0.1" y="1" relative="1" as="geometry">
              <mxPoint as="offset"/>
            </mxGeometry>
          </mxCell>
        </mxCell>
      </root>
    </mxGraphModel>
  </diagram>
  <diagram name="Security Architecture" id="diagram_2">
    <mxGraphModel dx="2500" dy="1600" grid="1" gridSize="10" guides="1" tooltips="1" connect="1" arrows="1" fold="1" page="1" pageScale="1" pageWidth="1400" pageHeight="1000">
      <root>
        <mxCell id="0"/>
        <mxCell id="1" parent="0"/>
        <!-- Security diagram components -->
      </root>
    </mxGraphModel>
  </diagram>
  <diagram name="Data Flow" id="diagram_3">
    <mxGraphModel dx="2500" dy="1600" grid="1" gridSize="10" guides="1" tooltips="1" connect="1" arrows="1" fold="1" page="1" pageScale="1" pageWidth="1400" pageHeight="1000">
      <root>
        <mxCell id="0"/>
        <mxCell id="1" parent="0"/>
        <!-- Data flow diagram components -->
      </root>
    </mxGraphModel>
  </diagram></mxfile>